<?xml version="1.0" encoding="UTF-8"?>
<svg id="Dining" xmlns="http://www.w3.org/2000/svg" viewBox="0 0 360 360">
  <path d="M119.46,335c-4.62-3.73-3.31-22.18-3.05-28.33,2.03-47.47,14.43-95.36,17.36-141.76.38-6.03.93-22.23-1-27.05-3.89-9.7-18.8-4.82-22.98-19.82-2.53-9.1-3.74-31.12-4.15-41.31-.28-7.1-1.15-33.99,2.08-38.14,2.62-3.37,9.89-4.35,11.16-.5.81,15.71-1.41,32.29,3.52,47.27,6.27-10.72,2.19-24.84,3.36-36.75.84-8.56,4.33-21.14,15.45-15.47,1.16,1.65.8,33.22.64,38.25-.13,4.27-4.19,11.42,1.93,12.64,8.83-13.42,3.16-30.59,9.79-45.04,5.03-10.96,16.89-18.42,19.72-1.82,3.63,21.28,2.35,63.24-.88,84.84-2.57,17.19-11.41,11.07-16.01,17.43-2.79,3.86-4.84,35.72-5.31,42.83-1.34,20.77-3.04,42.11-4.01,62.85-1.1,23.29,3.35,56-.03,77.53-.55,3.54-3.91,9.91-6.98,11.75-4.44,2.66-16.63,3.87-20.64.64ZM167.21,33.22c-7.78,2.03-10.61,11.21-11.88,18.19-.92,5.09-2.24,51.97-17.19,36.28-4.78-5.02,2-41.53-.35-50.46-7.02.68-7.66,12.27-8.07,17.99-.78,10.82,1.97,57.3-14.58,25.37l-1.43-39.36c-2.7.52-2.18,2.84-2.65,4.69-2.76,10.71.09,43.6,1.35,56.13.41,4.07,1.52,13.82,3,17.06,3.06,6.73,15.73,4.37,21.33,14.78,3.64,6.76,2.9,21.62,2.39,29.67-2.15,34.17-10.99,71.23-14.53,105.82-.87,8.48-5.52,58.69-1.6,61.42,11.56,2.23,18.41-1.73,20.03-13.57,2.66-19.46-1.87-43.77-1.28-64.12.81-27.64,3-60.54,5.42-88.18.59-6.71,1.27-20.51,3.28-26.14,2.93-8.25,11.84-6.95,14.71-10.7,1.52-1.99,2.95-11.17,3.23-14.15,1.61-17.18,2.47-42.88,1.57-60.05-.16-2.98-1.9-20.05-2.74-20.66Z"/>
  <path d="M213.64,324.33c-.58.72-9.36,7.53-10.23,7.8-14.11,4.4-19-3.69-20.11-16.14-5.38-60.12,13.08-115.26,19.93-173.91-6.39-8.37-10.48-10.84-12.67-21.89-4.06-20.42-3.99-62.29,9.4-79,20.2-25.22,58.31-14.65,65.87,15.78,5.19,20.89-4.87,66.47-21.74,80.49-9.06,7.53-15.45,3.84-18.96,17.15-3.3,12.54-4.93,36.75-5.8,50.36-2.31,36.02.91,74.06-2.61,109.71-.25,2.56-1.53,7.73-3.08,9.64ZM209.62,320.31c1.61-2.01,2.93-19.92,3.13-24.3,2.06-44.53-1.09-89.29,5.45-133.61.7-4.72,2.05-11.82,4-16.05,4.47-9.69,16.74-9.08,23.7-19.09,12.31-17.7,22.69-58.11,11.2-77.61-15.18-25.77-50.21-20.66-59.76,6.33-4.36,12.32-5.6,63.16,1.34,73.47,5.54,8.23,9.16,2.28,8.71,18.15-.86,30.11-11.77,60.02-15.91,89.72-3.7,26.58-5.8,55.92-2.71,82.58,1.49,12.79,15.37,7.22,20.84.42Z"/>
</svg>