<?xml version="1.0" encoding="UTF-8"?>
<svg id="Hotel" xmlns="http://www.w3.org/2000/svg" viewBox="0 0 360 360">
  <path d="M295.04,323.38h-23.89c-5.33,0-1.95-10.4-2.17-13.09-.7-8.38-1.36-16.38-10.82-18.61-16.51-3.89-49.31.28-67.1.94-32.84,1.23-74.33,1.11-106.28,6.26-6.01.97-16.18,3.1-20.26,7.49-9.04,9.7.94,26.9-4.42,31.03-4.95,1.97-24.32,2.96-27.26-.77-6.23-7.91-1.04-47.69-3.03-60.16-.62-3.86-3.52-6.45-4.2-9.69-4.38-20.94,42.17-88.73,48.91-113.78,3.86-14.36,1.92-33.03,3.11-47.75,1.97-24.38,4.52-48.76,7.97-72.94,12.25-2.56,23.97-7.69,36.8-6.38l-1.54,21.58c2.03,1.9,37.97-2.71,43.94-3.06,21.11-1.22,56.1.63,75.12-5.04,10.34-3.08,4.55-16.1,9.85-17.9,3.76-1.27,28.76-.75,31.45,2.06,7.87,8.24-.91,92.48,1.63,110.88,1.13,8.16,7.85,20.68,10.2,29.87,4.17,16.26,13.55,65.98,10.56,80.55-1.03,5.03-8.57,15.18-8.57,16.09v62.42ZM276.54,27.48h-23.12l-5.63,17.09c-41.91,7.55-85.1,5.24-127.42,10.31-10.09-2.46-3.1-14.01-4.14-21.24-9.19-1.15-17.4,2.43-26.02,4.82-.95,16.14-3.64,32.24-4.8,48.37-.62,8.62.44,17.51-.03,26.17-.34,6.17-4.63,33.12-2.39,36.33,7.69,3.91,16.92-1.9,25.54-.09-.03-11.99,1.35-48.44,16.27-50.78,29.29,1.2,61.81-.89,90.41,4.99,16.06,3.3,37.17,8.2,30.89,29.67l1.08,1.52,29.2-.98.17-106.18ZM239.09,118.84c-6.52-8-34.05-7.72-43.56-12.68l-70.53-1.33c-8.84,2.64-12.59,43.59-10.07,51.08,2.08,6.16,29.08,4.31,36.04,4.17,22.45-.45,46.81-1.16,69.28-3.17,4.85-.43,12.99-1.73,16.25-5.33,4.03-4.46,6.62-27.79,2.59-32.73ZM287.32,167.71l-10.12-27.53-31.43,1.41c-.58,14-7.27,20.15-20.89,21.49-30.75-1.5-65.42,6.06-95.61,4.7-10.47-.47-17.22-2.25-21.72-12.19l-27.29,1.29-7.22,16.23,214.29-5.39ZM288.71,174.05l-219.08,6.03c-3.29,1.79-30.78,59-33.85,66.73-4.87,12.27-9.74,21.93,7.39,23.99,29.6,3.56,73.16-7.13,104.58-9.13,28.57-1.82,56.45-.25,84.78.13,12.21.16,39.94,1.89,50.21-.79,7.91-2.06,14.43-12.23,15.41-20.04,2.49-19.97-7.53-46.66-9.45-66.91ZM288.86,266.36c-33.77,6.42-68.38-1.4-102.57-.07-22.67.88-48.06,2.85-70.83,4.71-26.47,2.16-53.85,10.49-80.94,4.61,3.32,7.75-1.04,55.89,4.1,57.08l16.03-.74c3.17-2.21.33-19.72,2.13-25.61,3.8-12.43,32.25-14.25,43.26-15.31,29.87-2.9,64-5.26,93.95-6.24,14.51-.48,55.35-2.29,67.17.79,12.72,3.31,15.33,20.86,12.29,31.63l16.96.02-1.56-50.86Z"/>
</svg>