<?xml version="1.0" encoding="UTF-8"?>
<svg id="Disco_Ball" data-name="Disco Ball" xmlns="http://www.w3.org/2000/svg" viewBox="0 0 360 360">
  <path d="M189.68,11.7c-7.34,43.86-7.19,88.43-6.62,132.89l1.66,1.63c10.27-.69,21.02,3.08,30.47,7.01,45.44,18.88,64.25,56.96,56.67,105.39-4.36,27.89-45.89,48.09-71.37,49.81-60.4,4.07-103.18-41.65-98-101.38,1.72-19.85,14.01-34.89,29.53-46.35,13.82-10.2,29.18-14.36,46.35-14.25.18-3.93-.29-7.95,0-11.88,2.25-29.7-.24-59.73,2.26-89.46.41-4.88,3.22-29.98,5.13-32.24,1.3-1.55,2.07-1.29,3.92-1.17ZM191.79,151.14c-7.03-2.3-14.24-1.25-21.36-.15l1.22,13.49,22.56,1.22-2.42-14.55ZM168.08,164.48c-.24-2.98,1.46-12.49-1.76-13.41l-18.04,5.58c.08,2.57-1.71,7.86,1.35,8.88l18.44-1.05ZM216.87,166.82c.11-12.06-12.05-13.05-21.51-14.7l1.12,13.59,20.39,1.12ZM145.51,166.82c-1.73-3.23,1.38-6.9-1.69-9.03l-11.89,7.92c-.3,1.86,1.53,1.05,2.8,1.12,3.57.18,7.21-.12,10.78,0ZM231.59,167.96c-1.09-2.12-11.22-8.05-12.45-6.78l1.07,6.23,11.38.55ZM181.76,169.1h-22.65v20.39s23.77-1.16,23.77-1.16l-1.12-19.23ZM206.57,170.33l-21.41-1.23,1.12,19.25,19.3.65c1.48-1.01,1.81-18.21.99-18.67ZM154.57,170.23h-17.56c-.4,0-1.79,1.26-2.74,1.25l1.03,19.14,20.4-1.14-1.14-19.25ZM232.73,171.36h-20.95c-.24,0-1.28-1.69-1.69-1.13l1.12,19.25h19.82c.24,0,1.28,1.69,1.69,1.13v-19.25ZM255.37,192.87c1.27-1.16-8.25-13.02-9.74-14.6-1.4-1.48-8.02-8.36-9.51-6.91l.15,19.12,19.1,2.4ZM130.75,172.52c-5.92-3.91-20.71,17.9-19.22,19.22l20.37-1.14-1.15-18.07ZM191.95,192.89l-21.37.13c-2.33,1.44,2.48,25.94.97,30.44l20.38-.02v-30.56ZM148.91,223.45h18.69l1.48-2.55-4.24-27.55-18.2.65,2.27,29.45ZM218,192.88h-22.65l-1.12,31.71h27.17s-3.4-31.71-3.4-31.71ZM249.45,196.54l-26.91-3.66,1.22,31.6,29.35,1.23-3.66-29.17ZM143.24,194.01l-20.39,1.13,1.13,28.32,20.99.07c1.21-9.73-3.23-19.4-1.73-29.52ZM119.45,195.14c-2.97.25-8.53.32-9.98,3.04s-3.09,20.26-2.48,23.58c.24,1.29.41,2.28,1.86,2.67l12.86.16-2.26-29.44ZM268.98,224.58l-10.24-29.44-5.63,1.14c2.14,9.39,3.94,19.91,2.27,29.42l13.6-1.13ZM162.38,228.1l-22.54-.12,3.39,27.81,21.53,1.63-2.38-29.31ZM167.03,257.42h20.39l-3.52-29.31-17.99-1.27,1.12,30.58ZM113.79,227.99h-5.67c-1.1,1.09,2.27,17.51,5.11,19.24l.56-19.24ZM135.32,227.98h-19.26l1.13,28.31h22.65l-4.53-28.31ZM206.11,227.98c-6.15-.43-12.53.31-18.69,0l3.4,29.44h20.39c.35-9.83-.31-19.7-2.43-29.27-1.05.47-1.88-.12-2.67-.17ZM238.39,229.11h-23.22c-.26,0-1.51-2.15-1.7-.56l1.24,28.77,24.83,1.73-1.15-29.94ZM246.88,260.82c6.08.8,13.56-.58,19.82,0,2.47-6.79.3-13.41.23-19.82-.04-3.42,1.55-7.15.91-11.36-.53-3.44-5.43-.58-8.45-.48-5.85.21-11.77-.24-17.61-.05l1.07,29.87c.14.5,3.47,1.77,4.03,1.84ZM129.66,259.68l-12.46.57c4.66,6.24,7.87,13.28,13.57,18.69l-1.12-19.26ZM152.31,281.77c-.65-4.77,0-11.86,0-16.99,0-.65-1.3-2.59-1.44-3.66l-17.81-1.44,1.12,22.66,19.26,1.12c.57-.41-1.09-1.37-1.13-1.69ZM178.36,260.82h-22.65l.46,21.56c1.49,2.19,18.08.4,22.19,2.22v-23.78ZM199.88,260.82h-18.12l.04,23.74,18.09,1.17v-24.91ZM227.06,261.96l-23.78-1.14v24.92s26.05,1.12,26.05,1.12l-2.27-24.9ZM232.87,286.73c19.23,2.48,22.09-6.11,17.99-23.16l-19.26-1.61,1.27,24.77ZM264.44,264.22h-9.06s.01,13.58.01,13.58c2.64.72,1.9-.65,2.59-1.44,1.42-1.63,7.78-10.86,6.46-12.14ZM170.33,288.1l-30.48-1.23c6.95,5.14,20.22,13.16,28.88,13.6,2.38.12,1.47-.01,1.71-1.69.21-1.46.25-10.29-.11-10.69ZM193.09,289.13l-19.26-1.12.05,13.46c6.21,1.87,12.73,2.55,19.21,2.39v-14.73ZM214.53,301.5l-1.01-10.72-17.04-1.65,1.06,14.19,16.98-1.82ZM238.39,290.26h-20.39l.58,10.21c6.91-1.94,14.86-4.79,19.81-10.21Z"/>
  <path d="M102.74,305.84c1.18,1.37,9.75,2.78,12.61,4.94,8.31,6.27-14.9,12.3-16.83,14.61-1.62,1.94-3.84,14.94-5.73,19.23-.42.95-.14,3.07-2.2,2.25-4.34-1.72-3.09-12.62-6.21-16.45-2.61-3.21-19.01-6-17-12.33.53-1.66,16.33-7.74,19.25-7.99,2.38-7.9,5.59-15.54,10.84-22.01,6.74-2.1,2.14,14.11,5.27,17.75ZM110.4,315.16c-1.9-3.72-8.12-2.59-10.74-5.67-2.46-2.9-1.45-8.14-3.42-11.3-4.1,3.39-4.35,12.87-7.96,15.82-2,1.63-14.11,4.09-14.11,6.26,7.25,3.7,14.61,4.8,16.4,14.15,2.99-3.18,2.4-10.9,5.6-13.65,1.91-1.64,13.41-4.56,14.22-5.61Z"/>
  <path d="M254.13,87.69l1.44,18.94c28.73,9.17,2.99,11.8-5.18,20.68-2.93,3.18-6.22,17.59-9.15,16.88-4.87-3.14-5.23-18.87-7.62-21.27-.82-.82-15.61-3.18-12.21-8.16l19.01-4.79c.47-2.94,8.44-21.59,9.48-22.21.71-.43,3.76-.46,4.24-.07ZM261.04,113.62l-8.95-4.09-2.36-14.04c-2.06,4.17-6.29,17.46-9.89,19.22-2.57,1.26-6.94.88-8.24,3.41,7.84.3,7.48,10.47,9.62,15.86,2.87-3.15,3.22-7.53,6.25-10.74,3.76-3.99,10.23-5.05,13.58-9.62Z"/>
</svg>