<?xml version="1.0" encoding="UTF-8"?>
<svg id="Shopping" xmlns="http://www.w3.org/2000/svg" viewBox="0 0 360 360">
  <path d="M133.04,63.63c5.07-21.98,23.75-49.21,47.51-52.63,12.45-1.79,39.25,1.12,48.1,10.65,12.55,13.52,11.5,36.79,8.3,53.66.83,1.08,23.38,7.04,26.24,7.38,3.92.47,19.01-.64,20.45,1.51l10.88,75.66c3.62,49.06,8.41,100.81,2.62,149.83-.18,1.51-.32,2.79-.97,4.19-2.64,5.67-32.67,14.62-39.07,20.35-51.06,20.9-106.03,12.01-159.59,8.38-14.44-.98-32.41.39-46.39-1.41-15.27-1.97-13.38-11.87-12.36-25.06,4.65-60.41,16.21-122.65,30.07-181.75,3.9-16.61,12.53-53.04,19.3-67.24,1.16-2.44.93-4.21,4.22-4.82,7.32-1.36,26.48-.35,34.96-.07,2.07.07,3.9.43,5.72,1.38ZM192.48,15.84c-26.55-1.08-48.7,23.22-52.96,47.77,13.28,2.19,10.67-3.56,15.76-12.01,6.37-10.57,13.61-20.58,23.09-28.58l14.12-7.18ZM205.26,71.22c2.54-14.07,9.19-34.45,2.45-48-2.87-5.77-14.47-1.45-19.41.69-13.71,5.93-27.52,26.31-33.27,39.7l50.24,7.61ZM211.86,19.71c7.34,16.76,2.39,34.08-.96,51.06.43,2.39,16.34,3.45,19.52,2.99,2.36-.8,3.25-10.38,3.45-13.33,1.1-15.8-2.99-39.15-22.01-40.72ZM257.02,86.92c-10.56-1.32-20.24-5.34-30.68-7.43-18.81-3.76-42.64-6.99-61.8-9.25-23.16-2.73-48.04-2.3-71.36-2.58-6.6,24.05-14.62,47.77-20.24,72.12-12.79,55.47-25.21,118.47-29.08,175-.42,6.11.23,12.5.22,18.61,10.85,4.6,22.71,2.06,34.12,2.7,42.59,2.38,85.26,8.48,127.83,5.21,4.18-.32,21.76-2.49,23.9-4.52,1.48-1.41,2.19-4.53,2.48-6.56,6.67-46.98,10.37-94.56,15.78-141.79,3.91-34.11,12.19-66.56,8.82-101.49ZM268.71,88.15h-6.47c3.19,34.5-5,66.56-8.88,100.26-3.89,33.86-6.18,67.86-10.68,101.69-1.58,11.87-5.43,23.62-4.97,35.7l18.67-34.92c6.11-35.18,5.08-70.95,7.17-106.49,1.89-32.08,7.37-63.91,5.16-96.24ZM278.98,88.22l-6.39-.06c3.05,23.27.08,47.98-1.31,71.65-2.22,37.83-5.28,76.14-8.89,113.81-.58,6.03.59,11.97-1.48,17.96l1.34,2.57,29.71,14.84,2.58-83.29-5.16-64.58-10.39-72.91ZM286.79,314.16c1.13-1.5-24.52-17.08-28.84-14.03l-17.66,32.12c10.14,1.11,18.64-6.27,27.55-10.55,6.06-2.91,12.65-5.23,18.96-7.54Z"/>
</svg>