<?xml version="1.0" encoding="UTF-8"?>
<svg id="Rings" xmlns="http://www.w3.org/2000/svg" viewBox="0 0 360 360">
  <path d="M115.9,86.16c28.09-4.45,57.46,3.13,77.95,23.44,19.19-11.06,36.63-16.12,59.07-14.61,53.43,3.58,101.46,82.23,87.62,132.13-19.95,71.92-95.59,110.75-158.74,60.8-48.44,26.54-116.72,22.9-146.12-29.04-15.39-27.19-19.66-64.85-9.69-94.57,7.37-21.95,24.95-39.5,39.56-56.65-2.18-2.57-5.65-3.1-8.15-5.2-4.45-3.75-15.89-13.52-19.34-17.65-1.29-1.54-2.62-2.68-1.94-4.97l15.39-35.1c9.16-4.28,26.77-17.31,36.85-16.3,4.94.5,33.73,13.88,35.76,17.77l-8.22,39.94ZM115.89,47.66c1.4-2.04-24.33-13.56-26.58-14.15-1.95-.5-4.08-.41-4.5,1.6-.65,3.14,15.57,17.13,18.48,19.61l12.6-7.07ZM81.39,39.21c-4.81-4.08-13.57,4.52-18.69,5.65l4.33,26.49,29.61-13.34-15.26-18.8ZM59.62,47.66l-4.55.93-11.73,28.68,17.78-2.94-1.49-26.66ZM105.54,95.05c5.2-2.92,13.19-41.14,11.82-42.93l-13.07,8.39,1.25,34.54ZM98.12,63.97l-27.86,14.04,18.9,28.22c3.08,4.13,11.32,1.81,12-3.08l-3.04-39.18ZM87.76,112.8l-22.18-31.83-19.27.76,6.43,8.37c3.86,3.77,23.86,20.25,27.65,21.95,2.42,1.08,4.85.86,7.38.75ZM175.92,125.49c4.08-4.15,7.91-8.29,12.49-11.94-9.95-10.28-20.01-15.95-33.97-19.29-15.65-3.75-44.15-10.23-46.35,12.24-5.72,2.02-23.59,13.09-28.09,11.97-2.36-.59-4.91-3.73-7.13-4.98h-2.79c-35.54,28.07-50.6,71.14-40.27,115.74,21.81,94.15,143.7,82.8,191.82,16.7,17.24-23.68,15.39-47.14,5.35-73.19-3.61-9.37-9.5-17.95-11.9-27.35l-17.29,11.07c9.72,21.9,15.57,55.43,4.53,77.57-17.5,35.1-61.68,48.09-98.66,42.77-33.51-4.82-56.49-40.34-54.49-72.93,2.89-46.98,33.75-75.87,79.44-82.02,15.16-2.04,30.12,2.12,44.14,7.31.96-1.37,2-2.44,3.17-3.64ZM294.54,257.37c-15.67,15.82-46.56,31.21-68.8,24.67-7.13-2.1-13.12-7.21-20.28-9.28l-16.98,12.52c51.35,38.91,115.41,13.15,139.43-42.66,11.39-26.48,13.57-42.5,2.72-69.87-23.16-58.37-81.84-98.43-139.09-53.15-42.23,33.41-52.08,94.84-23.85,140.57,1.68,1.37,13.96-8.04,14.65-10.74-11.87-27.84-11.52-60.33,2.91-87.28,9.21-17.21,36.41-31.42,55.72-33.11,34.2-3,47.01,7.61,60.07,37.76,14.48,33.43,21.58,62.25-6.48,90.57ZM167.72,133.55c-6.39-1.05-13.91-5.03-20.11-5.82-23.37-2.96-61.02,8.47-75.29,28.11-31.64,43.54-19.58,113.42,42.76,115.43,15.29.49,32.19-3.1,46.72-7.49-9.38-22.72-17.78-42-16.35-67.39,1.32-23.45,10.38-43.23,22.27-62.84ZM291.48,251.34c23.57-24.97,19.24-47.52,6.56-77.11-11.64-27.18-21.68-41.69-54.04-39.19-4.53.35-24.72,3.7-24.21,9.32.21,2.32,11.79,23.73,13.81,29.17,9.13,24.62,10.95,48.81-3.38,72.07-4.71,7.64-13.51,13.75-18.09,20.41-.86,1.25-2.07,1.46-1.46,3.7,6.07,1.77,11.51,5.23,17.72,6.73,21.49,5.2,48.61-9.74,63.1-25.09ZM194.35,161.67c-3.38-.63-2.35.21-3.28,1.89-12.21,22.02-16,56.51-4.84,79.55,1.99.15,2.39.36,3.81-.99.75-.71,7.83-13,8.59-14.77,7.39-17.27,2.8-48.36-4.28-65.68Z"/>
</svg>